<svg width="73" height="32" viewBox="0 0 73 32" fill="none" xmlns="http://www.w3.org/2000/svg">
<path d="M11.9334 4.32301L20.2465 9.11753C20.9933 9.54821 21.4532 10.3441 21.4532 11.2055V14.6082C21.4532 15.4696 20.9931 16.2655 20.2465 16.6962L17.2967 18.3971C16.5498 18.8278 16.0899 19.6237 16.0899 20.4851V23.8878C16.0899 24.7492 15.63 25.5451 14.8832 25.9758L11.9334 27.677C11.1865 28.1077 10.2664 28.1077 9.51987 27.677L1.20674 22.883C0.459904 22.4523 0 21.6564 0 20.7951V11.2057C0 10.3444 0.459904 9.54848 1.20674 9.1178L9.5196 4.32301C10.2664 3.89233 11.1865 3.89233 11.9331 4.32301H11.9334Z" fill="#3B82D9"/>
<path d="M10.2795 5.44443L3.50833 9.34972C3.15087 9.55594 3.15087 10.0716 3.50833 10.2778L10.2795 14.1831C10.5699 14.3507 10.9277 14.3507 11.2181 14.1831L17.989 10.2778C18.3465 10.0716 18.3465 9.55594 17.989 9.34972L11.2181 5.44443C10.9277 5.27682 10.5699 5.27682 10.2795 5.44443Z" fill="#A9D7FF"/>
<path d="M24.4526 17.7316C24.4526 15.2577 26.2504 13.4436 28.7999 13.4436C30.99 13.4436 32.5915 14.7796 32.9838 16.7091H31.0227C30.6794 15.8351 29.8623 15.2744 28.7999 15.2744C27.3781 15.2744 26.4137 16.2969 26.4137 17.7318C26.4137 19.1668 27.3781 20.1893 28.7999 20.1893C29.8621 20.1893 30.6794 19.6286 31.0227 18.7544H32.9838C32.5915 20.6841 30.99 22.0198 28.7999 22.0198C26.2504 22.0198 24.4526 20.2057 24.4526 17.7318V17.7316Z" fill="#393939"/>
<path d="M35.8921 17.8968V13.6582H37.8369V17.8968C37.8369 19.4471 38.654 20.1894 39.8798 20.1894C41.1055 20.1894 41.9226 19.4474 41.9226 17.8968V13.6582H43.8674V17.8968C43.8674 20.6182 42.2656 22.0199 39.8795 22.0199C37.4934 22.0199 35.8916 20.6345 35.8916 17.8968H35.8921Z" fill="#393939"/>
<path d="M47.1038 17.6657V10.0957H49.0485V14.8454C49.6205 13.9382 50.5848 13.4435 51.7452 13.4435C53.7063 13.4435 55.7655 14.8618 55.7655 17.6491C55.7655 20.2385 53.9677 22.0197 51.4019 22.0197C48.8361 22.0197 47.1035 20.3045 47.1035 17.6657H47.1038ZM53.8044 17.7317C53.8044 16.2968 52.8401 15.2742 51.4183 15.2742C49.9965 15.2742 49.0485 16.2968 49.0485 17.7317C49.0485 19.1667 49.9965 20.1892 51.4183 20.1892C52.8401 20.1892 53.8044 19.1667 53.8044 17.7317Z" fill="#393939"/>
<path d="M58.6421 11.3001C58.6421 10.5414 59.1814 9.98071 59.9333 9.98071C60.6852 9.98071 61.2245 10.5414 61.2245 11.3001C61.2245 12.0587 60.6852 12.6031 59.9333 12.6031C59.1814 12.6031 58.6421 12.0587 58.6421 11.3001ZM58.9526 13.6583H60.8974V21.8055H58.9526V13.6583Z" fill="#393939"/>
<path d="M64.084 17.7316C64.084 15.2577 65.8818 13.4436 68.4312 13.4436C70.9807 13.4436 72.746 15.2577 72.746 17.7316V18.4242H66.1269C66.3883 19.6117 67.2872 20.2384 68.4312 20.2384C69.2974 20.2384 69.9348 19.9911 70.3435 19.4631H72.4191C71.8144 21.0134 70.3435 22.0195 68.4312 22.0195C65.8818 22.0195 64.084 20.2054 64.084 17.7316ZM70.6868 16.8576C70.3762 15.7691 69.4937 15.225 68.4315 15.225C67.3693 15.225 66.4867 15.7858 66.1762 16.8576H70.687H70.6868Z" fill="#393939"/>
</svg>
