<svg width="76" height="86" viewBox="0 0 76 86" fill="none" xmlns="http://www.w3.org/2000/svg">
<path d="M42.2618 1.73083L71.7025 18.7106C74.3475 20.2358 75.9762 23.0545 75.9762 26.1049V38.1557C75.9762 41.2062 74.3465 44.0249 71.7025 45.5501L61.2558 51.5741C58.6109 53.0993 56.9822 55.918 56.9822 58.9684V71.0192C56.9822 74.0697 55.3534 76.8884 52.7085 78.4136L42.2618 84.4385C39.6168 85.9637 36.3584 85.9637 33.7144 84.4385L4.27366 67.4607C1.62874 65.9355 0 63.1167 0 60.0663V26.1059C0 23.0554 1.62874 20.2367 4.27366 18.7115L33.7135 1.73083C36.3584 0.205608 39.6178 0.205608 42.2618 1.73083Z" fill="#317CD8"/>
<path d="M36.4012 5.70152L12.4212 19.532C11.1553 20.2623 11.1553 22.0886 12.4212 22.8189L36.4012 36.6495C37.4297 37.243 38.6966 37.243 39.7251 36.6495L63.7041 22.8189C64.9701 22.0886 64.9701 20.2623 63.7041 19.532L39.7251 5.70152C38.6966 5.10796 37.4297 5.10796 36.4012 5.70152Z" fill="#A9D7FF"/>
</svg>
