<svg width="108" height="121" viewBox="0 0 108 121" fill="none" xmlns="http://www.w3.org/2000/svg">
<path d="M101.319 25.8288L59.8822 1.92348C56.1596 -0.223842 51.5734 -0.223842 47.8521 1.92348L6.41497 25.8302C2.69231 27.9775 0.399902 31.9459 0.399902 36.2405V84.0525C0.399902 88.3472 2.69231 92.3156 6.41497 94.4629L31.0273 108.662C31.6689 109.251 32.3773 109.775 33.1486 110.22L47.8521 118.702C51.5748 120.85 56.1609 120.85 59.8822 118.702L101.318 94.7972C105.041 92.6498 107.333 88.6814 107.333 84.3868V36.2392C107.333 31.9445 105.041 27.9761 101.318 25.8288H101.319Z" fill="#A5D3FE"/>
<path d="M51.638 7.51395L17.8868 26.9856C16.105 28.0138 16.105 30.585 17.8868 31.6132L51.638 51.0848C53.0856 51.9205 54.8687 51.9205 56.3164 51.0848L90.0662 31.6132C91.848 30.585 91.848 28.0138 90.0662 26.9856L56.3164 7.51395C54.8687 6.67829 53.0856 6.67829 51.638 7.51395Z" fill="#EDF6FE"/>
</svg>
