<svg width="107" height="120" viewBox="0 0 107 120" fill="none" xmlns="http://www.w3.org/2000/svg">
<path d="M100.919 25.5158L59.4823 1.61049C55.7597 -0.53683 51.1735 -0.53683 47.4522 1.61049L6.01507 25.5172C2.29241 27.6645 0 31.6329 0 35.9275V83.7395C0 88.0342 2.29241 92.0026 6.01507 94.1499L30.6274 108.35C31.269 108.938 31.9774 109.462 32.7487 109.907L47.4522 118.39C51.1749 120.537 55.761 120.537 59.4823 118.39L100.918 94.4842C104.641 92.3368 106.933 88.3684 106.933 84.0738V35.9262C106.933 31.6316 104.641 27.6631 100.918 25.5158H100.919Z" fill="#FE674D"/>
<path d="M51.2379 7.20097L17.4867 26.6726C15.7049 27.7008 15.7049 30.272 17.4867 31.3002L51.2379 50.7718C52.6856 51.6075 54.4687 51.6075 55.9163 50.7718L89.6662 31.3002C91.448 30.272 91.448 27.7008 89.6662 26.6726L55.9163 7.20097C54.4687 6.3653 52.6856 6.3653 51.2379 7.20097Z" fill="#FDD4CD"/>
</svg>
