<svg width="107" height="120" viewBox="0 0 107 120" fill="none" xmlns="http://www.w3.org/2000/svg">
<path d="M100.919 45.5158L59.4823 21.6105C55.7597 19.4632 51.1735 19.4632 47.4522 21.6105L6.01507 45.5172C2.29241 47.6645 0 51.6329 0 55.9275V83.7395C0 88.0342 2.29241 92.0026 6.01507 94.1499L30.6274 108.35C31.269 108.938 31.9774 109.462 32.7487 109.907L47.4522 118.39C51.1749 120.537 55.761 120.537 59.4823 118.39L100.918 94.4842C104.641 92.3368 106.933 88.3685 106.933 84.0738V55.9262C106.933 51.6316 104.641 47.6631 100.918 45.5158H100.919Z" fill="#33BD88"/>
<path d="M51.2379 27.201L17.4867 46.6726C15.7049 47.7008 15.7049 50.272 17.4867 51.3002L51.2379 70.7718C52.6856 71.6075 54.4687 71.6075 55.9163 70.7718L89.6662 51.3002C91.448 50.272 91.448 47.7008 89.6662 46.6726L55.9163 27.201C54.4687 26.3653 52.6856 26.3653 51.2379 27.201Z" fill="#A3E4CB"/>
</svg>
