<svg width="64" height="65" viewBox="0 0 64 65" fill="none" xmlns="http://www.w3.org/2000/svg">
<g clip-path="url(#clip0_111_288)">
<path d="M63 32.813C63 15.6922 49.1208 1.81299 32 1.81299C14.8792 1.81299 1 15.6922 1 32.813C1 49.9338 14.8792 63.813 32 63.813C49.1208 63.813 63 49.9338 63 32.813Z" fill="white"/>
<path d="M63 32.813C63 15.6922 49.1208 1.81299 32 1.81299C14.8792 1.81299 1 15.6922 1 32.813C1 49.9338 14.8792 63.813 32 63.813C49.1208 63.813 63 49.9338 63 32.813Z" stroke="#317CD8" stroke-width="2"/>
<path d="M35.1839 40.7939C35.0608 40.917 34.8593 40.8387 34.7809 40.7043C34.6801 40.5364 34.5794 39.8534 34.501 39.5959C33.7285 37.1217 31.6797 35.084 29.1942 34.3563C28.9927 34.3003 28.1754 34.1548 28.1082 34.054C28.0298 33.9533 28.0522 33.763 28.1418 33.6622C30.9967 33.1472 33.415 31.2327 34.4002 28.4786C34.5794 27.9747 34.6577 27.4374 34.8481 26.9559C35.3519 26.732 35.3407 27.5381 35.4414 27.8852C36.2251 30.561 38.1508 32.5986 40.8378 33.3935C41.0617 33.4607 41.8454 33.5838 41.9462 33.7294C42.2372 34.1884 41.2632 34.222 40.9945 34.3115C38.3523 35.084 36.3259 37.0097 35.5198 39.6519C35.4526 39.8534 35.2847 40.7267 35.2063 40.7939H35.1839Z" fill="#3B82D9"/>
<path d="M26.2051 23.2614C26.2051 23.2614 26.3058 23.2502 26.3618 23.2725C26.429 23.3173 26.6081 24.101 26.6753 24.2578C27.2686 25.8812 28.7689 27.0679 30.4594 27.3814C30.8737 27.6277 29.7765 27.8292 29.631 27.874C28.2427 28.3666 27.1119 29.4974 26.6305 30.8969C26.5633 31.1096 26.4961 31.5462 26.429 31.6806C26.3618 31.8149 26.1939 31.8149 26.1267 31.6806C26.0707 31.5798 26.0483 31.3223 26.0035 31.1767C25.4885 29.5758 24.4473 28.4226 22.8463 27.8628C22.6896 27.8068 22.1186 27.6949 22.0514 27.6277C21.9731 27.5605 21.9843 27.4262 22.085 27.3814C23.7196 27.0679 25.1862 25.9707 25.8132 24.4257C25.9476 24.0898 26.0035 23.698 26.1155 23.3845C26.1379 23.3397 26.1603 23.2725 26.2162 23.2502L26.2051 23.2614Z" fill="#3B82D9"/>
<path d="M27.5486 37.0322C27.627 37.0098 27.6606 37.0322 27.6941 37.1106C27.7613 37.2337 27.8173 37.592 27.8957 37.7599C28.2315 38.5996 28.9481 39.193 29.7878 39.4953C29.9669 39.5624 30.1796 39.5401 30.3028 39.6968C30.3028 39.7976 29.743 39.9095 29.6198 39.9543C28.9033 40.2342 28.1756 40.9171 27.8957 41.6337C27.8173 41.824 27.7837 42.0927 27.7053 42.2606C27.515 42.6749 27.3807 41.8464 27.3359 41.7232C27.0224 40.9171 26.3171 40.223 25.4998 39.9207C25.3766 39.8759 24.9176 39.8423 24.9176 39.6968C24.9176 39.5512 25.2759 39.5401 25.3878 39.4953C26.2723 39.1594 26.9664 38.5996 27.3135 37.6928C27.3583 37.5808 27.4814 37.0322 27.5374 37.021L27.5486 37.0322Z" fill="#3B82D9"/>
</g>
<defs>
<clipPath id="clip0_111_288">
<rect width="64" height="64" fill="white" transform="translate(0 0.812988)"/>
</clipPath>
</defs>
</svg>
