<svg width="64" height="66" viewBox="0 0 64 66" fill="none" xmlns="http://www.w3.org/2000/svg">
<g clip-path="url(#clip0_111_204)">
<path d="M63.01 32.6615C63.01 15.5379 49.1286 1.65649 32.005 1.65649C14.8814 1.65649 1 15.5379 1 32.6615V32.6915C1 49.8151 14.8814 63.6965 32.005 63.6965C49.1286 63.6965 63.01 49.8151 63.01 32.6915V32.6615Z" fill="white"/>
<path d="M63.01 32.6615C63.01 15.5379 49.1286 1.65649 32.005 1.65649C14.8814 1.65649 1 15.5379 1 32.6615V32.6915C1 49.8151 14.8814 63.6965 32.005 63.6965C49.1286 63.6965 63.01 49.8151 63.01 32.6915V32.6615Z" stroke="#317CD8" stroke-width="2"/>
<path d="M33.0794 29.5111H26.4454C25.8147 29.5111 25.3008 28.9972 25.3008 28.3665C25.3008 27.7358 25.8147 27.2219 26.4454 27.2219H33.0794C33.7101 27.2219 34.224 27.7358 34.224 28.3665C34.224 28.9972 33.7101 29.5111 33.0794 29.5111Z" fill="#317CD8"/>
<path d="M29.4354 33.2726H26.4454C25.8147 33.2726 25.3008 32.7587 25.3008 32.128C25.3008 31.4973 25.8147 30.9834 26.4454 30.9834H29.4354C30.0661 30.9834 30.58 31.4973 30.58 32.128C30.58 32.7587 30.0661 33.2726 29.4354 33.2726Z" fill="#317CD8"/>
<path d="M31.7715 38.1076H24.3666C24.0513 38.1076 23.7943 37.8506 23.7943 37.5353V26.7199C23.7943 26.4046 24.0513 26.1476 24.3666 26.1476H35.3805C35.6959 26.1476 35.9528 26.4046 35.9528 26.7199V29.9552C35.9528 30.2705 36.2098 30.5275 36.5251 30.5275H37.6698C37.9851 30.5275 38.2537 30.2822 38.2537 29.9669V25.003C38.2537 24.3723 37.7398 23.8584 37.1091 23.8584H22.6497C22.019 23.8584 21.5051 24.3723 21.5051 25.003V39.2639C21.5051 39.8946 22.019 40.4085 22.6497 40.4085H31.7949C32.1219 40.4085 32.3789 40.1398 32.3672 39.8245L32.3438 38.6799C32.3438 38.3645 32.0752 38.1193 31.7715 38.1193V38.1076Z" fill="#317CD8"/>
<path d="M28.2326 36.8226H26.4339C25.8032 36.8226 25.2893 36.3087 25.2893 35.678C25.2893 35.0473 25.8032 34.5334 26.4339 34.5334H28.2326C28.8633 34.5334 29.3772 35.0473 29.3772 35.678C29.3772 36.3087 28.8633 36.8226 28.2326 36.8226Z" fill="#317CD8"/>
<path d="M42.0377 34.4169C40.8464 34.2067 40.9048 33.2256 41.0566 32.665C41.1267 32.408 41.0215 32.1511 40.7996 32.0109L38.8491 30.8313C38.6272 30.7028 38.3352 30.7145 38.16 30.8897C37.2257 31.8357 36.4081 31.3101 35.9876 30.913C35.8007 30.7262 35.5204 30.6911 35.2985 30.8196L33.313 32.0109C33.0911 32.1394 32.986 32.3964 33.0444 32.6416C33.4064 33.903 32.5772 34.2768 32.0165 34.3819C31.7479 34.4286 31.561 34.6739 31.561 34.9542L31.5844 37.2668C31.5844 37.5471 31.7946 37.7807 32.0749 37.8274C33.1261 37.9909 33.1144 38.972 33.0093 39.5209C32.9626 39.7545 33.0677 39.9998 33.2779 40.1166L35.4153 41.4014C35.6372 41.5298 35.9292 41.5065 36.1044 41.3196C36.9337 40.432 37.6578 40.9225 38.0432 41.3196C38.2301 41.5065 38.5104 41.5532 38.744 41.413L40.7996 40.2217C41.0099 40.0932 41.1033 39.848 41.0449 39.6027C40.7412 38.3179 41.5238 37.9559 42.0494 37.8507C42.318 37.804 42.5049 37.5588 42.5049 37.2901V35.0009C42.5049 34.7206 42.3063 34.487 42.0377 34.4403V34.4169ZM37.0388 38.4698C35.7423 38.4698 34.6795 37.4186 34.6795 36.1105C34.6795 34.8024 35.7307 33.7512 37.0388 33.7512C38.3469 33.7512 39.3981 34.8024 39.3981 36.1105C39.3981 37.4186 38.3469 38.4698 37.0388 38.4698Z" fill="#317CD8"/>
</g>
<defs>
<clipPath id="clip0_111_204">
<rect width="64" height="65" fill="white" transform="translate(0 0.656494)"/>
</clipPath>
</defs>
</svg>
