<svg width="64" height="65" viewBox="0 0 64 65" fill="none" xmlns="http://www.w3.org/2000/svg">
<g clip-path="url(#clip0_111_193)">
<path d="M63 32.5C63 15.3792 49.1208 1.5 32 1.5C14.8792 1.5 1 15.3792 1 32.5C1 49.6208 14.8792 63.5 32 63.5C49.1208 63.5 63 49.6208 63 32.5Z" fill="white"/>
<path d="M63 32.5C63 15.3792 49.1208 1.5 32 1.5C14.8792 1.5 1 15.3792 1 32.5C1 49.6208 14.8792 63.5 32 63.5C49.1208 63.5 63 49.6208 63 32.5Z" stroke="#317CD8" stroke-width="2"/>
<path d="M41.87 31.4299C41.58 30.4699 40.43 29.5999 39.74 28.8999C37.7 27.2099 35.78 24.4599 33.73 22.8899C32.8 22.1699 31.49 22.1499 30.5 22.7299C28.11 25.1499 25.06 27.6199 22.88 30.1999C21.09 32.3199 22.18 34.8899 24.88 35.1399C25.06 37.8199 23.9 41.4699 27.72 41.7599C30.06 41.9299 33.96 41.9399 36.3 41.7599C40.09 41.4799 38.97 37.8099 39.15 35.1499C41.08 35.0399 42.45 33.3399 41.87 31.4299ZM33.83 39.7199C33.83 40.1299 33.5 40.4699 33.08 40.4699H31.04C30.63 40.4699 30.29 40.1399 30.29 39.7199V35.8699C30.29 35.4599 30.62 35.1199 31.04 35.1199H33.08C33.49 35.1199 33.83 35.4499 33.83 35.8699V39.7199Z" fill="#317CD8"/>
</g>
<defs>
<clipPath id="clip0_111_193">
<rect width="64" height="64" fill="white" transform="translate(0 0.5)"/>
</clipPath>
</defs>
</svg>
