<svg width="64" height="66" viewBox="0 0 64 66" fill="none" xmlns="http://www.w3.org/2000/svg">
<g clip-path="url(#clip0_111_304)">
<path d="M63.01 32.318C63.01 15.1944 49.1286 1.31299 32.005 1.31299C14.8814 1.31299 1 15.1944 1 32.318V32.348C1 49.4716 14.8814 63.353 32.005 63.353C49.1286 63.353 63.01 49.4716 63.01 32.348V32.318Z" fill="white"/>
<path d="M63.01 32.318C63.01 15.1944 49.1286 1.31299 32.005 1.31299C14.8814 1.31299 1 15.1944 1 32.318V32.348C1 49.4716 14.8814 63.353 32.005 63.353C49.1286 63.353 63.01 49.4716 63.01 32.348V32.318Z" stroke="#317CD8" stroke-width="2"/>
<path d="M32.99 23.313H24C23.4477 23.313 23 23.7607 23 24.313V29.453C23 30.0053 23.4477 30.453 24 30.453H32.99C33.5423 30.453 33.99 30.0053 33.99 29.453V24.313C33.99 23.7607 33.5423 23.313 32.99 23.313Z" fill="#317CD8"/>
<path d="M32.99 31.4331H24C23.4477 31.4331 23 31.8808 23 32.4331V40.3131C23 40.8654 23.4477 41.3131 24 41.3131H32.99C33.5423 41.3131 33.99 40.8654 33.99 40.3131V32.4331C33.99 31.8808 33.5423 31.4331 32.99 31.4331Z" fill="#317CD8"/>
<path d="M40 34.4629H35.98C35.4277 34.4629 34.98 34.9106 34.98 35.4629V40.3129C34.98 40.8652 35.4277 41.3129 35.98 41.3129H40C40.5523 41.3129 41 40.8652 41 40.3129V35.4629C41 34.9106 40.5523 34.4629 40 34.4629Z" fill="#317CD8"/>
<path d="M40 23.313H35.98C35.4277 23.313 34.98 23.7607 34.98 24.313V32.453C34.98 33.0053 35.4277 33.453 35.98 33.453H40C40.5523 33.453 41 33.0053 41 32.453V24.313C41 23.7607 40.5523 23.313 40 23.313Z" fill="#317CD8"/>
</g>
<defs>
<clipPath id="clip0_111_304">
<rect width="64" height="65" fill="white" transform="translate(0 0.312988)"/>
</clipPath>
</defs>
</svg>
